<?xml version="1.0" encoding="UTF-8" standalone="no"?>
<!DOCTYPE svg PUBLIC "-//W3C//DTD SVG 1.1//EN"
 "http://www.w3.org/Graphics/SVG/1.1/DTD/svg11.dtd">
<!-- Generated by graphviz version 2.43.0 (0)
 -->
<!-- Title: Mancer DDD Legend Pages: 1 -->
<svg width="1427pt" height="136pt"
 viewBox="0.00 0.00 1427.00 136.00" xmlns="http://www.w3.org/2000/svg" xmlns:xlink="http://www.w3.org/1999/xlink">
<g id="graph0" class="graph" transform="scale(1 1) rotate(0) translate(4 132)">
<title>Mancer DDD Legend</title>
<polygon fill="white" stroke="transparent" points="-4,4 -4,-132 1423,-132 1423,4 -4,4"/>
<text text-anchor="middle" x="709.5" y="-108" font-family="Times,serif" font-size="20.00">Mancer DDD Architecture &#45; Legend</text>
<g id="clust1" class="cluster">
<title>cluster_layers</title>
<path fill="none" stroke="black" d="M20,-8C20,-8 529,-8 529,-8 535,-8 541,-14 541,-20 541,-20 541,-78 541,-78 541,-84 535,-90 529,-90 529,-90 20,-90 20,-90 14,-90 8,-84 8,-78 8,-78 8,-20 8,-20 8,-14 14,-8 20,-8"/>
<text text-anchor="middle" x="274.5" y="-70" font-family="Times,serif" font-size="20.00">DDD Layers</text>
</g>
<g id="clust2" class="cluster">
<title>cluster_subdomains</title>
<path fill="none" stroke="black" d="M561,-8C561,-8 1399,-8 1399,-8 1405,-8 1411,-14 1411,-20 1411,-20 1411,-78 1411,-78 1411,-84 1405,-90 1399,-90 1399,-90 561,-90 561,-90 555,-90 549,-84 549,-78 549,-78 549,-20 549,-20 549,-14 555,-8 561,-8"/>
<text text-anchor="middle" x="980" y="-70" font-family="Times,serif" font-size="20.00">Subdomains</text>
</g>
<!-- layer_0 -->
<g id="node1" class="node">
<title>layer_0</title>
<g id="a_node1"><a xlink:title="User&#45;facing components (CLI, API, etc.)">
<polygon fill="#8dd3c7" stroke="black" points="533.5,-52 426.5,-52 426.5,-16 533.5,-16 533.5,-52"/>
<text text-anchor="middle" x="480" y="-30.3" font-family="Arial" font-size="14.00">Interface Layer</text>
</a>
</g>
</g>
<!-- layer_1 -->
<g id="node2" class="node">
<title>layer_1</title>
<g id="a_node2"><a xlink:title="Orchestration, command execution, workflow">
<polygon fill="#ffffb3" stroke="black" points="408,-52 288,-52 288,-16 408,-16 408,-52"/>
<text text-anchor="middle" x="348" y="-30.3" font-family="Arial" font-size="14.00">Application Layer</text>
</a>
</g>
</g>
<!-- layer_2 -->
<g id="node3" class="node">
<title>layer_2</title>
<g id="a_node3"><a xlink:title="Core business logic, models, interfaces">
<polygon fill="#bebada" stroke="black" points="269.5,-52 168.5,-52 168.5,-16 269.5,-16 269.5,-52"/>
<text text-anchor="middle" x="219" y="-30.3" font-family="Arial" font-size="14.00">Domain Layer</text>
</a>
</g>
</g>
<!-- layer_3 -->
<g id="node4" class="node">
<title>layer_3</title>
<g id="a_node4"><a xlink:title="External systems, concrete implementations">
<polygon fill="#fb8072" stroke="black" points="150,-52 16,-52 16,-16 150,-16 150,-52"/>
<text text-anchor="middle" x="83" y="-30.3" font-family="Arial" font-size="14.00">Infrastructure Layer</text>
</a>
</g>
</g>
<!-- subdomain_0 -->
<g id="node5" class="node">
<title>subdomain_0</title>
<g id="a_node5"><a xlink:title="Contracts between components">
<polygon fill="#80b1d3" stroke="black" points="1402.5,-52 1275.5,-52 1275.5,-16 1402.5,-16 1402.5,-52"/>
<text text-anchor="middle" x="1339" y="-30.3" font-family="Arial" font-size="14.00">Domain Interfaces</text>
</a>
</g>
</g>
<!-- subdomain_1 -->
<g id="node6" class="node">
<title>subdomain_1</title>
<g id="a_node6"><a xlink:title="Core business entities">
<polygon fill="#fdb462" stroke="black" points="1257,-52 1145,-52 1145,-16 1257,-16 1257,-52"/>
<text text-anchor="middle" x="1201" y="-30.3" font-family="Arial" font-size="14.00">Domain Models</text>
</a>
</g>
</g>
<!-- subdomain_2 -->
<g id="node7" class="node">
<title>subdomain_2</title>
<g id="a_node7"><a xlink:title="Business operations on models">
<polygon fill="#b3de69" stroke="black" points="1126.5,-52 1007.5,-52 1007.5,-16 1126.5,-16 1126.5,-52"/>
<text text-anchor="middle" x="1067" y="-30.3" font-family="Arial" font-size="14.00">Domain Services</text>
</a>
</g>
</g>
<!-- subdomain_3 -->
<g id="node8" class="node">
<title>subdomain_3</title>
<g id="a_node8"><a xlink:title="Command execution environments">
<polygon fill="#fccde5" stroke="black" points="989.5,-52 850.5,-52 850.5,-16 989.5,-16 989.5,-52"/>
<text text-anchor="middle" x="920" y="-30.3" font-family="Arial" font-size="14.00">Execution Backends</text>
</a>
</g>
</g>
<!-- subdomain_4 -->
<g id="node9" class="node">
<title>subdomain_4</title>
<g id="a_node9"><a xlink:title="Concrete command implementations">
<polygon fill="#d9d9d9" stroke="black" points="832.5,-52 647.5,-52 647.5,-16 832.5,-16 832.5,-52"/>
<text text-anchor="middle" x="740" y="-30.3" font-family="Arial" font-size="14.00">Command Implementations</text>
</a>
</g>
</g>
<!-- subdomain_5 -->
<g id="node10" class="node">
<title>subdomain_5</title>
<g id="a_node10"><a xlink:title="Object creation services">
<polygon fill="#bc80bd" stroke="black" points="629,-52 557,-52 557,-16 629,-16 629,-52"/>
<text text-anchor="middle" x="593" y="-30.3" font-family="Arial" font-size="14.00">Factories</text>
</a>
</g>
</g>
</g>
</svg>
